# xmcd
#
# Track frame offsets:
# 150
# 20842
# 37375
# 60025
# 78473
# 95253
# 119189
# 137159
# 152148
# 173286
#
# Disc length: 2552 seconds
#
#
# Revision: 0
# Processed by: cddbd v1.5.1PL0 Copyright (c) Steve Scherf et al.
# Submitted via: FreeRIP 2.80 
#
DISCID=8009f60a
DTITLE=Elegance - Vremea Trece, Vremea Vine
DYEAR=2000
DGENRE=Pop-Folk
TTITLE0=Ochii Tai
TTITLE1=Haide, vino la mine
TTITLE2=Nu voi plinge
TTITLE3=Marioara de la Gorj
TTITLE4=Buni prieteni
TTITLE5=Blestem... Sanie cu zurgalai... Ciuleandra
TTITLE6=Nu-mi dau dragostea
TTITLE7=Sarut dulce
TTITLE8=Am prieteni si dusmani (remix)
TTITLE9=Vremea trece, vremea vine
EXTD=
EXTT0=
EXTT1=
EXTT2=
EXTT3=
EXTT4=
EXTT5=
EXTT6=
EXTT7=
EXTT8=
EXTT9=
PLAYORDER=
